<svg width="16" height="20" viewBox="0 0 16 20" fill="none" xmlns="http://www.w3.org/2000/svg">
<path d="M15.2159 8.10795C15.2159 13.6364 8.10795 18.375 8.10795 18.375C8.10795 18.375 1 13.6364 1 8.10795C1 6.22281 1.74887 4.41487 3.08187 3.08187C4.41487 1.74887 6.22281 1 8.10795 1C9.9931 1 11.801 1.74887 13.134 3.08187C14.467 4.41487 15.2159 6.22281 15.2159 8.10795Z" stroke="white" stroke-width="1.3" stroke-linecap="round" stroke-linejoin="round"/>
<path d="M8.10797 10.4774C9.4165 10.4774 10.4773 9.41663 10.4773 8.10809C10.4773 6.79955 9.4165 5.73877 8.10797 5.73877C6.79943 5.73877 5.73865 6.79955 5.73865 8.10809C5.73865 9.41663 6.79943 10.4774 8.10797 10.4774Z" stroke="white" stroke-width="1.3" stroke-linecap="round" stroke-linejoin="round"/>
</svg>
