<svg width="140" height="140" viewBox="0 0 140 140" fill="none" xmlns="http://www.w3.org/2000/svg">
<path d="M131.837 63.6244C131.837 58.625 129.581 53.9398 125.736 50.8213C125.903 50.023 125.986 49.256 125.986 48.5012C125.986 42.2737 121.381 37.1016 115.399 36.2108C115.536 35.4955 115.601 34.7937 115.601 34.0947C115.601 27.4647 110.376 22.0478 103.831 21.7037C103.723 21.686 103.614 21.6711 103.502 21.6711C103.447 21.6711 103.394 21.6779 103.338 21.6792C103.284 21.6779 103.231 21.6711 103.175 21.6711C102.552 21.6711 101.925 21.7268 101.263 21.8424C100.112 15.7428 94.7989 11.2004 88.4286 11.2004C81.2057 11.2004 75.3291 17.077 75.3291 24.3013V113.95C75.3291 123.093 82.7669 130.53 91.9089 130.53C97.9745 130.53 103.48 127.248 106.387 122.035C107.039 122.176 107.664 122.263 108.293 122.304C112.241 122.556 116.086 121.263 119.072 118.642C122.059 116.021 123.846 112.394 124.104 108.428C124.212 106.776 124.027 105.118 123.556 103.481C128.719 99.8207 131.753 94.0258 131.753 87.676C131.753 83.0724 130.095 78.6524 127.068 75.1313C130.114 72.0468 131.837 67.9206 131.837 63.6244ZM127.676 87.6787C127.676 92.4169 125.524 96.7635 121.834 99.6725C119.103 95.326 114.259 92.5502 109.014 92.5502C107.888 92.5502 106.974 93.4641 106.974 94.5902C106.974 95.7163 107.888 96.6302 109.014 96.6302C113.557 96.6302 117.696 99.4767 119.325 103.713C119.883 105.193 120.13 106.69 120.034 108.166C119.846 111.043 118.55 113.675 116.382 115.576C114.214 117.479 111.43 118.424 108.559 118.234C107.752 118.181 106.916 118.007 105.93 117.687C104.924 117.358 103.835 117.856 103.42 118.829C101.455 123.459 96.9354 126.451 91.9075 126.451C85.015 126.451 79.4077 120.844 79.4077 113.951V24.3027C79.4077 19.3292 83.4537 15.2818 88.4273 15.2818C93.0485 15.2818 96.8511 18.7661 97.3461 23.3167C93.6048 25.46 91.0738 29.4843 91.0738 34.096C91.0738 35.2235 91.9877 36.136 93.1138 36.136C94.2399 36.136 95.1538 35.2235 95.1538 34.096C95.1538 29.5496 98.8109 25.8476 103.336 25.7592C107.86 25.8476 111.517 29.5496 111.517 34.0947C111.517 34.9406 111.358 35.8164 111.029 36.7752C110.952 37.001 110.915 37.2376 110.919 37.4756C110.92 37.5314 110.923 37.5831 110.928 37.632C110.92 37.6606 110.915 37.6796 110.915 37.6796C110.754 38.312 110.907 38.9839 111.324 39.4857C111.742 39.9876 112.365 40.2596 113.026 40.2174C113.167 40.2079 113.308 40.1902 113.559 40.1548C118.16 40.1548 121.904 43.8989 121.904 48.4998C121.904 49.2777 121.764 50.076 121.466 51.0144C121.19 51.878 121.517 52.8205 122.27 53.3264C125.58 55.5555 127.586 59.2139 127.729 63.1756C127.729 63.181 127.727 63.1864 127.727 63.1919C127.727 70.0327 122.162 75.5992 115.321 75.5992C108.48 75.5992 102.914 70.0327 102.914 63.1919C102.914 62.0644 102 61.1519 100.874 61.1519C99.7479 61.1519 98.834 62.0644 98.834 63.1919C98.834 72.2835 106.23 79.6792 115.321 79.6792C118.351 79.6792 121.183 78.8428 123.625 77.4107C126.237 80.2531 127.676 83.8884 127.676 87.6787Z" fill="#BB915F" fill-opacity="0.8"/>
<path d="M55.9233 11.2014C49.5531 11.2014 44.2409 15.7438 43.0917 21.8434C42.4281 21.7278 41.8011 21.6721 41.1782 21.6721C41.1238 21.6721 41.0708 21.6789 41.015 21.6802C40.9606 21.6789 40.9076 21.6721 40.8518 21.6721C40.7389 21.6721 40.6301 21.687 40.5227 21.7047C33.977 22.0488 28.7533 27.4657 28.7533 34.0957C28.7533 34.7947 28.8199 35.4965 28.9559 36.2118C22.9733 37.1026 18.3683 42.2747 18.3683 48.5021C18.3683 49.2556 18.4513 50.0226 18.6185 50.8223C14.7738 53.9408 12.5176 58.626 12.5176 63.6253C12.5176 67.9216 14.2393 72.0478 17.2844 75.135C14.2557 78.6561 12.5978 83.0761 12.5978 87.6797C12.5978 94.0295 15.632 99.8231 20.7945 103.484C20.3226 105.122 20.139 106.78 20.2478 108.433C20.5062 112.398 22.2919 116.025 25.2785 118.645C28.265 121.268 32.0989 122.561 36.0578 122.308C36.6766 122.267 37.3077 122.177 37.9618 122.037C40.8695 127.252 46.3748 130.533 52.4404 130.533C61.5823 130.533 69.0201 123.095 69.0201 113.953V24.3023C69.0229 17.078 63.1463 11.2014 55.9233 11.2014ZM64.9429 113.951C64.9429 120.843 59.3356 126.451 52.4431 126.451C47.4152 126.451 42.8959 123.459 40.9321 118.829C40.6043 118.058 39.8536 117.586 39.0539 117.586C38.8445 117.586 38.6309 117.617 38.4215 117.687C37.4369 118.006 36.6018 118.18 35.7926 118.233C32.9108 118.422 30.1377 117.477 27.9713 115.576C25.8034 113.675 24.5073 111.043 24.3197 108.165C24.2163 106.588 24.4897 104.988 25.1329 103.412C25.1425 103.389 25.1397 103.363 25.1479 103.34C26.973 99.1839 30.8939 96.604 35.4798 96.604C36.6073 96.604 37.5198 95.6901 37.5198 94.564C37.5198 93.4379 36.6073 92.524 35.4798 92.524C30.1241 92.524 25.2785 95.2535 22.4945 99.649C18.8212 96.74 16.6778 92.4043 16.6778 87.6783C16.6778 83.888 18.1194 80.2527 20.7279 77.4117C23.1705 78.8437 26.0033 79.6801 29.0334 79.6801C38.125 79.6801 45.5207 72.2845 45.5207 63.1929C45.5207 62.0654 44.6081 61.1529 43.4807 61.1529C42.3533 61.1529 41.4407 62.0654 41.4407 63.1929C41.4407 70.0337 35.8756 75.6001 29.0334 75.6001C22.1913 75.6001 16.6261 70.0337 16.6261 63.1929C16.6261 63.1901 16.6248 63.1874 16.6248 63.1847C16.7649 59.2203 18.7709 55.5592 22.0825 53.3274C22.8345 52.8215 23.1609 51.8804 22.8862 51.0168C22.587 50.077 22.4483 49.2787 22.4483 48.5008C22.4483 43.9094 26.1761 40.1708 30.8735 40.1708C30.883 40.1708 30.8939 40.1708 30.9034 40.1708C31.0435 40.1898 31.1836 40.2075 31.3264 40.217C31.986 40.2578 32.6157 39.9845 33.0318 39.4799C33.4493 38.974 33.5989 38.2994 33.4317 37.6657C33.4317 37.6643 33.4276 37.6466 33.4208 37.6235C33.4249 37.5759 33.4289 37.5324 33.4303 37.4943C33.4371 37.2495 33.4004 37.0061 33.3201 36.7749C32.991 35.8133 32.8319 34.9361 32.8319 34.0929C32.8319 29.5478 36.4876 25.8445 41.0137 25.7575C45.5397 25.8459 49.1954 29.5478 49.1954 34.0943C49.1954 35.2217 50.108 36.1343 51.2354 36.1343C52.3629 36.1343 53.2754 35.2217 53.2754 34.0943C53.2754 29.4825 50.7445 25.4583 47.0031 23.3149C47.4981 18.7644 51.3007 15.2801 55.922 15.2801C60.8955 15.2801 64.9415 19.3274 64.9415 24.3009V113.951H64.9429Z" fill="#BB915F" fill-opacity="0.8"/>
<path d="M63.5 16.5L65.5 26V113.5L63.5 121L56 126.5L44.5 125L37.5 119L28.5 117L22.5 111.5L20.5 99.5L13 92V80L18.5 73L13 66V58L18.5 50.5V44.5L24 37.5L30 35L28.5 29.5L34 23.5L42.5 21.5L44.5 15L53 11.5L59 13L63.5 16.5Z" fill="white"/>
<path d="M76 16.5L74 26V113.5L76 121L83.5 126.5L95 125L102 119L111 117L117 111.5L119 99.5L126.5 92V80L121 73L126.5 66V58L121 50.5V44.5L115.5 37.5L109.5 35L111 29.5L105.5 23.5L97 21.5L95 15L86.5 11.5L80.5 13L76 16.5Z" fill="white"/>
<path d="M129.837 61.6244C129.837 56.625 127.581 51.9398 123.736 48.8213C123.903 48.023 123.986 47.256 123.986 46.5012C123.986 40.2737 119.381 35.1016 113.399 34.2108C113.536 33.4955 113.601 32.7937 113.601 32.0947C113.601 25.4647 108.376 20.0478 101.831 19.7037C101.723 19.686 101.614 19.6711 101.502 19.6711C101.447 19.6711 101.394 19.6779 101.338 19.6792C101.284 19.6779 101.231 19.6711 101.175 19.6711C100.552 19.6711 99.9253 19.7268 99.2629 19.8424C98.1124 13.7428 92.7989 9.20044 86.4286 9.20044C79.2057 9.20044 73.3291 15.077 73.3291 22.3013V111.95C73.3291 121.093 80.7669 128.53 89.9089 128.53C95.9745 128.53 101.48 125.248 104.387 120.035C105.039 120.176 105.664 120.263 106.293 120.304C110.241 120.556 114.086 119.263 117.072 116.642C120.059 114.021 121.846 110.394 122.104 106.428C122.212 104.776 122.027 103.118 121.556 101.481C126.719 97.8207 129.753 92.0258 129.753 85.676C129.753 81.0724 128.095 76.6524 125.068 73.1313C128.114 70.0468 129.837 65.9206 129.837 61.6244ZM125.676 85.6787C125.676 90.4169 123.524 94.7635 119.834 97.6725C117.103 93.326 112.259 90.5502 107.014 90.5502C105.888 90.5502 104.974 91.4641 104.974 92.5902C104.974 93.7163 105.888 94.6302 107.014 94.6302C111.557 94.6302 115.696 97.4767 117.325 101.713C117.883 103.193 118.13 104.69 118.034 106.166C117.846 109.043 116.55 111.675 114.382 113.576C112.214 115.479 109.43 116.424 106.559 116.234C105.752 116.181 104.916 116.007 103.93 115.687C102.924 115.358 101.835 115.856 101.42 116.829C99.4547 121.459 94.9354 124.451 89.9075 124.451C83.015 124.451 77.4077 118.844 77.4077 111.951V22.3027C77.4077 17.3292 81.4537 13.2818 86.4273 13.2818C91.0485 13.2818 94.8511 16.7661 95.3461 21.3167C91.6048 23.46 89.0738 27.4843 89.0738 32.096C89.0738 33.2235 89.9877 34.136 91.1138 34.136C92.2399 34.136 93.1538 33.2235 93.1538 32.096C93.1538 27.5496 96.8109 23.8476 101.336 23.7592C105.86 23.8476 109.517 27.5496 109.517 32.0947C109.517 32.9406 109.358 33.8164 109.029 34.7752C108.952 35.001 108.915 35.2376 108.919 35.4756C108.92 35.5314 108.923 35.5831 108.928 35.632C108.92 35.6606 108.915 35.6796 108.915 35.6796C108.754 36.312 108.907 36.9839 109.324 37.4857C109.742 37.9876 110.365 38.2596 111.026 38.2174C111.167 38.2079 111.308 38.1902 111.559 38.1548C116.16 38.1548 119.904 41.8989 119.904 46.4998C119.904 47.2777 119.764 48.076 119.466 49.0144C119.19 49.878 119.517 50.8205 120.27 51.3264C123.58 53.5555 125.586 57.2139 125.729 61.1756C125.729 61.181 125.727 61.1864 125.727 61.1919C125.727 68.0327 120.162 73.5992 113.321 73.5992C106.48 73.5992 100.914 68.0327 100.914 61.1919C100.914 60.0644 100 59.1519 98.874 59.1519C97.7479 59.1519 96.834 60.0644 96.834 61.1919C96.834 70.2835 104.23 77.6792 113.321 77.6792C116.351 77.6792 119.183 76.8428 121.625 75.4107C124.237 78.2531 125.676 81.8884 125.676 85.6787Z" fill="black"/>
<path d="M53.9233 9.20142C47.5531 9.20142 42.2409 13.7438 41.0917 19.8434C40.4281 19.7278 39.8011 19.6721 39.1782 19.6721C39.1238 19.6721 39.0708 19.6789 39.015 19.6802C38.9606 19.6789 38.9076 19.6721 38.8518 19.6721C38.7389 19.6721 38.6301 19.687 38.5227 19.7047C31.977 20.0488 26.7533 25.4657 26.7533 32.0957C26.7533 32.7947 26.8199 33.4965 26.9559 34.2118C20.9733 35.1026 16.3683 40.2747 16.3683 46.5021C16.3683 47.2556 16.4513 48.0226 16.6185 48.8223C12.7738 51.9408 10.5176 56.626 10.5176 61.6253C10.5176 65.9216 12.2393 70.0478 15.2844 73.135C12.2557 76.6561 10.5978 81.0761 10.5978 85.6797C10.5978 92.0295 13.632 97.8231 18.7945 101.484C18.3226 103.122 18.139 104.78 18.2478 106.433C18.5062 110.398 20.2919 114.025 23.2785 116.645C26.265 119.268 30.0989 120.561 34.0578 120.308C34.6766 120.267 35.3077 120.177 35.9618 120.037C38.8695 125.252 44.3748 128.533 50.4404 128.533C59.5823 128.533 67.0201 121.095 67.0201 111.953V22.3023C67.0229 15.078 61.1463 9.20142 53.9233 9.20142ZM62.9429 111.951C62.9429 118.843 57.3356 124.451 50.4431 124.451C45.4152 124.451 40.8959 121.459 38.9321 116.829C38.6043 116.058 37.8536 115.586 37.0539 115.586C36.8445 115.586 36.6309 115.617 36.4215 115.687C35.4369 116.006 34.6018 116.18 33.7926 116.233C30.9108 116.422 28.1377 115.477 25.9713 113.576C23.8034 111.675 22.5073 109.043 22.3197 106.165C22.2163 104.588 22.4897 102.988 23.1329 101.412C23.1425 101.389 23.1397 101.363 23.1479 101.34C24.973 97.1839 28.8939 94.604 33.4798 94.604C34.6073 94.604 35.5198 93.6901 35.5198 92.564C35.5198 91.4379 34.6073 90.524 33.4798 90.524C28.1241 90.524 23.2785 93.2535 20.4945 97.649C16.8212 94.74 14.6778 90.4043 14.6778 85.6783C14.6778 81.888 16.1194 78.2527 18.7279 75.4117C21.1705 76.8437 24.0033 77.6801 27.0334 77.6801C36.125 77.6801 43.5207 70.2845 43.5207 61.1929C43.5207 60.0654 42.6081 59.1529 41.4807 59.1529C40.3533 59.1529 39.4407 60.0654 39.4407 61.1929C39.4407 68.0337 33.8756 73.6001 27.0334 73.6001C20.1913 73.6001 14.6261 68.0337 14.6261 61.1929C14.6261 61.1901 14.6248 61.1874 14.6248 61.1847C14.7649 57.2203 16.7709 53.5592 20.0825 51.3274C20.8345 50.8215 21.1609 49.8804 20.8862 49.0168C20.587 48.077 20.4483 47.2787 20.4483 46.5008C20.4483 41.9094 24.1761 38.1708 28.8735 38.1708C28.883 38.1708 28.8939 38.1708 28.9034 38.1708C29.0435 38.1898 29.1836 38.2075 29.3264 38.217C29.986 38.2578 30.6157 37.9845 31.0318 37.4799C31.4493 36.974 31.5989 36.2994 31.4317 35.6657C31.4317 35.6643 31.4276 35.6466 31.4208 35.6235C31.4249 35.5759 31.4289 35.5324 31.4303 35.4943C31.4371 35.2495 31.4004 35.0061 31.3201 34.7749C30.991 33.8133 30.8319 32.9361 30.8319 32.0929C30.8319 27.5478 34.4876 23.8445 39.0137 23.7575C43.5397 23.8459 47.1954 27.5478 47.1954 32.0943C47.1954 33.2217 48.108 34.1343 49.2354 34.1343C50.3629 34.1343 51.2754 33.2217 51.2754 32.0943C51.2754 27.4825 48.7445 23.4583 45.0031 21.3149C45.4981 16.7644 49.3007 13.2801 53.922 13.2801C58.8955 13.2801 62.9415 17.3274 62.9415 22.3009V111.951H62.9429Z" fill="black"/>
</svg>
