<svg width="140" height="140" viewBox="0 0 140 140" fill="none" xmlns="http://www.w3.org/2000/svg">
<g clip-path="url(#clip0)">
<path d="M113.818 50.1204C94.4259 56.1898 81.3218 46.9836 65.3158 51.9931C49.2856 57.0103 45.0044 71.6576 24.4 78.1064M94.9705 112.728C94.9705 112.728 89.2713 94.5184 87.9095 90.1673C85.8732 83.6611 89.5944 76.3324 96.2363 74.2537C99.2446 73.3121 118.189 67.3831 118.189 67.3831M29.7107 95.0747C29.7107 95.0747 49.9297 88.7466 52.6035 87.9098C59.5968 85.721 66.4155 89.522 68.5171 96.2367C69.9259 100.738 75.5782 118.798 75.5782 118.798M53.1772 13.2083C21.0997 23.2479 3.16789 57.5138 13.2082 89.5937C23.2485 121.674 57.5161 139.602 89.5936 129.563C121.671 119.523 139.603 85.2572 129.563 53.1773C119.522 21.0974 85.2546 3.16877 53.1772 13.2083ZM85.8002 117.442C60.4058 125.39 33.2771 111.197 25.3284 85.8003C17.3798 60.4035 31.5762 33.2764 56.9705 25.3286C82.3649 17.3807 109.491 31.5747 117.44 56.9714C125.389 82.3682 111.195 109.495 85.8002 117.442ZM81.0815 68.3508C82.7576 73.7059 79.7751 79.4057 74.42 81.0817C69.065 82.7577 63.3652 79.7753 61.6891 74.4202C60.0131 69.0651 62.9956 63.3653 68.3506 61.6893C73.7057 60.0133 79.4055 62.9957 81.0815 68.3508Z" stroke="#BB915F" stroke-opacity="0.8" stroke-width="4" stroke-miterlimit="10" stroke-linecap="round" stroke-linejoin="round"/>
<path d="M32 73L23 75.5L24.5 85.5L28 93.5L42.5 88L56.5 85.5L61.5 87L65.5 89.5L67 95.5L74 117.5L85.5 115.5L93 110.5L85.5 88L87 79.5L91.5 73L97.5 70.5L117.5 66V62.5L112.5 48L99 51L88.5 49.5H76.5H65.5L56.5 53L45.5 62.5L32 73Z" fill="white" stroke="black"/>
<circle cx="69.5" cy="69.5" r="9.5" fill="#F8F6F0"/>
<path d="M51.1772 11.2083C19.0997 21.2479 1.16789 55.5138 11.2082 87.5937C21.2485 119.674 55.5161 137.602 87.5936 127.563C119.671 117.523 137.603 83.2572 127.563 51.1773C117.522 19.0974 83.2546 1.16877 51.1772 11.2083ZM83.8002 115.442C58.4058 123.39 31.2771 109.197 23.3284 83.8003C15.3798 58.4035 29.5762 31.2764 54.9705 23.3286C80.3649 15.3807 107.491 29.5747 115.44 54.9714C123.389 80.3682 109.195 107.495 83.8002 115.442Z" fill="white"/>
<path d="M72.42 79.0817C77.7751 77.4057 80.7576 71.7059 79.0815 66.3508C77.4055 60.9957 71.7057 58.0133 66.3506 59.6893C60.9956 61.3653 58.0131 67.0651 59.6891 72.4202C61.3652 77.7753 67.065 80.7577 72.42 79.0817Z" fill="white"/>
<path fill-rule="evenodd" clip-rule="evenodd" d="M51.1772 11.2083C19.0997 21.2479 1.16789 55.5138 11.2082 87.5937C21.2485 119.674 55.5161 137.602 87.5936 127.563C119.671 117.523 137.603 83.2572 127.563 51.1773C117.522 19.0974 83.2546 1.16877 51.1772 11.2083ZM23.3284 83.8003C31.2771 109.197 58.4058 123.39 83.8002 115.442C109.195 107.495 123.389 80.3682 115.44 54.9714C107.491 29.5747 80.3649 15.3807 54.9705 23.3286C29.5762 31.2764 15.3798 58.4035 23.3284 83.8003Z" fill="white"/>
<path d="M111.818 48.1204C92.4259 54.1898 79.3218 44.9836 63.3158 49.9931C47.2856 55.0103 43.0044 69.6576 22.4 76.1064M92.9705 110.728C92.9705 110.728 87.2713 92.5184 85.9095 88.1673C83.8732 81.6611 87.5944 74.3324 94.2363 72.2537C97.2446 71.3121 116.189 65.3831 116.189 65.3831M27.7107 93.0747C27.7107 93.0747 47.9297 86.7466 50.6035 85.9098C57.5968 83.721 64.4155 87.522 66.5171 94.2367C67.9259 98.7381 73.5782 116.798 73.5782 116.798M51.1772 11.2083C19.0997 21.2479 1.16789 55.5138 11.2082 87.5937C21.2485 119.674 55.5161 137.602 87.5936 127.563C119.671 117.523 137.603 83.2572 127.563 51.1773C117.522 19.0974 83.2546 1.16877 51.1772 11.2083ZM83.8002 115.442C58.4058 123.39 31.2771 109.197 23.3284 83.8003C15.3798 58.4035 29.5762 31.2764 54.9705 23.3286C80.3649 15.3807 107.491 29.5747 115.44 54.9714C123.389 80.3682 109.195 107.495 83.8002 115.442ZM79.0815 66.3508C80.7576 71.7059 77.7751 77.4057 72.42 79.0817C67.065 80.7577 61.3652 77.7753 59.6891 72.4202C58.0131 67.0651 60.9956 61.3653 66.3506 59.6893C71.7057 58.0133 77.4055 60.9957 79.0815 66.3508Z" stroke="#1C1C1C" stroke-width="4" stroke-miterlimit="10" stroke-linecap="round" stroke-linejoin="round"/>
</g>
<defs>
<clipPath id="clip0">
<rect width="140" height="140" fill="white"/>
</clipPath>
</defs>
</svg>
