<svg width="32" height="32" viewBox="0 0 32 32" fill="none" xmlns="http://www.w3.org/2000/svg">
<path d="M30.6133 10.88C27.9466 7.67999 22.5066 5.75999 16 5.75999C9.59997 5.75999 4.05331 7.67999 1.38664 10.88C0.319973 12.16 -0.106693 13.6533 0.213307 15.1467C0.42664 16.4267 1.27997 17.6 2.34664 18.1333C2.98664 18.4533 3.73331 18.56 4.37331 18.56C4.69331 18.56 5.11997 18.56 5.43997 18.4533C5.22664 19.0933 5.11997 19.7333 5.01331 20.48C4.79997 22.4 5.11997 23.7867 6.07997 24.8533C7.14664 26.1333 8.85331 26.24 9.49331 26.24C9.70664 26.24 9.81331 26.24 9.81331 26.24H22.2933C23.68 26.24 24.96 25.7067 25.7066 24.7467C26.7733 23.4667 26.9866 21.6533 26.88 20.48C26.7733 19.84 26.6666 19.0933 26.4533 18.4533C26.7733 18.56 27.2 18.56 27.6266 18.56C28.2666 18.56 29.0133 18.4533 29.6533 18.1333C30.72 17.6 31.5733 16.4267 31.7866 15.1467C32 13.6533 31.68 12.0533 30.6133 10.88ZM24.5333 23.68C24 24.32 23.2533 24.64 22.2933 24.64H9.70664C9.59997 24.64 8.10664 24.7467 7.25331 23.7867C6.71997 23.1467 6.50664 22.08 6.61331 20.6933C7.14664 16.4267 10.0266 13.8667 10.56 13.44C12.0533 12.2667 14.08 11.52 16.1066 11.52C18.1333 11.52 19.9466 12.16 21.3333 13.44C23.36 15.1467 24.8533 18.0267 25.28 20.6933C25.3866 21.5467 25.28 22.8267 24.5333 23.68ZM30.1866 14.8267C29.9733 15.68 29.5466 16.4267 28.8 16.7467C27.6266 17.3867 26.0266 16.8533 25.6 16.64C24.8533 14.9333 23.68 13.44 22.2933 12.2667C20.5866 10.7733 18.3466 10.0267 16 10.0267C13.6533 10.0267 11.3066 10.88 9.49331 12.2667C9.06664 12.5867 7.25331 14.1867 6.07997 16.7467C5.54664 16.96 4.15997 17.3867 3.09331 16.7467C2.45331 16.4267 1.91997 15.68 1.70664 14.8267C1.49331 13.8667 1.81331 12.8 2.55997 11.9467C5.01331 9.06666 10.0266 7.35999 16 7.35999C21.9733 7.35999 26.9866 9.06666 29.3333 11.9467C30.08 12.8 30.4 13.76 30.1866 14.8267ZM16 13.2267C13.6533 13.2267 11.6266 14.9333 11.6266 16.96C11.6266 18.9867 13.5466 20.6933 16 20.6933C18.3466 20.6933 20.3733 18.9867 20.3733 16.96C20.3733 14.9333 18.3466 13.2267 16 13.2267ZM16 19.0933C14.5066 19.0933 13.2266 18.1333 13.2266 16.96C13.2266 15.7867 14.4 14.8267 16 14.8267C17.4933 14.8267 18.7733 15.7867 18.7733 16.96C18.7733 18.1333 17.4933 19.0933 16 19.0933Z" fill="white"/>
</svg>
