<svg width="32" height="32" viewBox="0 0 32 32" fill="none" xmlns="http://www.w3.org/2000/svg">
<path d="M15.6967 30.5999C23.6048 30.5999 29.9933 24.0508 29.9933 15.9999C29.9933 7.949 23.6048 1.3999 15.6967 1.3999C7.78854 1.3999 1.40002 7.949 1.40002 15.9999C1.40002 24.0508 7.78854 30.5999 15.6967 30.5999Z" stroke="#C4C4C4" stroke-width="1.2"/>
<path d="M2.82336 22.6899C3.97921 21.9957 6.75032 20.6342 8.58806 20.7405C9.00708 20.6962 10.3045 20.776 12.1423 21.4494C12.778 21.7595 14.3702 22.3886 15.6531 22.4241C16.2744 22.4537 17.8897 22.3 19.3807 21.4494C19.8141 21.2131 20.9757 20.7405 22.1547 20.7405C22.5304 20.711 23.6717 20.7671 25.2321 21.2278L28.3095 22.4241" stroke="#C4C4C4" stroke-width="1.2"/>
<path d="M5.51074 25.8355C5.91528 25.5843 7.1318 25.0734 8.76156 25.038C9.1516 24.9937 10.4346 25.0912 12.4457 25.8355C12.9659 26.057 14.2835 26.5355 15.3932 26.6772C15.711 26.7216 16.7281 26.6861 18.2538 26.1899C18.8029 25.9094 20.2563 25.2861 21.678 25.038C22.2704 24.9494 23.9926 24.9849 26.1424 25.8355" stroke="#C4C4C4" stroke-width="1.2"/>
<path d="M6.97086 20.6957C6.27433 19.9278 4.93349 17.7096 5.14246 14.9805C5.27305 13.5628 5.8651 10.7539 7.18852 10.8602C7.43521 10.875 8.06789 10.9843 8.6251 11.3033L20.5098 17.8602C20.916 18.0523 21.8505 18.321 22.3382 17.8602C22.6428 17.5501 23.1216 16.8235 22.5993 16.3982L21.0321 15.2906C20.5567 14.9241 19.7208 13.8268 20.1519 12.3543C20.1581 12.3332 20.1665 12.3125 20.1767 12.293L21.2145 10.2938C21.3055 10.1184 21.5199 10.0537 21.6895 10.1504L24.6454 11.8349C25.2838 12.1598 26.3083 13.2438 25.2983 14.9805C25.6175 14.1978 26.6652 12.8982 28.3021 13.9615L30 14.9805" stroke="#C4C4C4" stroke-width="1.2" stroke-linejoin="round"/>
<path d="M5.29407 14.0442C5.36631 13.2468 5.73618 11.5544 6.63773 11.1645C6.89779 11.002 7.59996 10.7746 8.32811 11.1645L10.5386 12.3607" stroke="#C4C4C4" stroke-width="1.2"/>
<path d="M24.1052 20.5027L24.9288 18.8635C25.1454 18.5091 25.839 17.9596 26.8792 18.5976C27.3849 18.8486 28.6216 19.3774 29.5232 19.4837" stroke="#C4C4C4" stroke-width="1.2"/>
<path d="M5.6842 14.1392L13.0093 18.348C14.0495 18.9682 16.2428 20.6518 16.6935 22.4239" stroke="#C4C4C4" stroke-width="1.2"/>
<path d="M11.182 15.6053C11.5134 15.6053 11.782 15.3366 11.782 15.0053C11.782 14.6739 11.5134 14.4053 11.182 14.4053C10.8506 14.4053 10.582 14.6739 10.582 15.0053C10.582 15.3366 10.8506 15.6053 11.182 15.6053Z" fill="#C4C4C4"/>
<path d="M14.6977 5.15996C15.0291 5.15996 15.2977 4.89133 15.2977 4.55996C15.2977 4.22859 15.0291 3.95996 14.6977 3.95996C14.3663 3.95996 14.0977 4.22859 14.0977 4.55996C14.0977 4.89133 14.3663 5.15996 14.6977 5.15996Z" fill="#C4C4C4"/>
<path d="M16.8285 11.0382V10.1964C16.8429 9.84195 16.5685 9.13313 15.3548 9.13313H12.7542C12.4074 9.10359 11.7312 8.80524 11.8006 7.8483C11.7862 7.58248 11.9566 7.00653 12.7542 6.82932H18.3022C18.649 6.82932 19.3338 6.58122 19.2992 5.58881C19.3279 5.30823 19.2038 4.7116 18.4756 4.56982H16.8285" stroke="#C4C4C4" stroke-width="1.2" stroke-linecap="round" stroke-linejoin="round"/>
</svg>
