<svg width="32" height="32" viewBox="0 0 32 32" fill="none" xmlns="http://www.w3.org/2000/svg">
<path d="M28.8 0.640137H3.20001C1.79201 0.640137 0.640015 1.79214 0.640015 3.20014V28.8001C0.640015 30.2081 1.79201 31.3601 3.20001 31.3601H28.8C30.208 31.3601 31.36 30.2081 31.36 28.8001V3.20014C31.36 1.79214 30.208 0.640137 28.8 0.640137Z" fill="#C4C4C4"/>
<path d="M15.6667 9.13316C17.3333 9.19983 18.5333 9.66649 19.7333 10.5998C21.2 11.6665 22.0667 13.1998 22.4 15.0665C22.4667 15.5998 22.5333 15.9998 22.5333 16.5998C22.5333 17.0665 22.6 17.1998 22.6667 17.3332C22.7333 17.4665 22.8667 17.5332 22.9333 17.5332C23 17.5332 23.0667 17.5332 23.0667 17.4665C23.2 17.3998 23.2667 17.1998 23.2 16.9998C23.2 16.9332 23.1333 16.8665 23.1333 16.5332C23.1333 15.8665 23.0667 15.4665 22.9333 14.9332C22.5333 12.8665 21.6 11.1998 20 10.0665C18.6667 9.06649 17.3333 8.59983 15.5333 8.46649C15 8.46649 14.9333 8.39983 14.9333 8.39983C14.8 8.26649 14.6 8.33316 14.4667 8.46649C14.5333 8.59983 14.5333 8.79983 14.6667 8.93316C14.9333 9.06649 15.1333 9.13316 15.6667 9.13316Z" fill="#1C1C1C"/>
<path d="M19.9333 13.6667C20.2666 14.2667 20.4666 15 20.4666 15.7333C20.4666 16.2 20.5333 16.6 20.9333 16.8667C20.9999 16.8667 20.9999 16.9333 21.0666 16.9333C21.1999 16.9333 21.3333 16.8667 21.3333 16.7333C21.3999 16.6 21.3333 16.4 21.1999 16.2667C21.1333 16.2667 21.0666 16.2 21.0666 15.7333C21.0666 14.8667 20.8666 14 20.4666 13.3333C20.0666 12.5333 19.3999 11.8667 18.6666 11.4667C17.9999 11.0667 17.0666 10.8 16.1999 10.7333C15.9333 10.7333 15.8666 10.6667 15.8666 10.6C15.7333 10.4667 15.5333 10.4667 15.3999 10.6C15.2666 10.7333 15.2666 10.9333 15.3999 11.0667C15.5333 11.2667 15.8666 11.3333 16.1333 11.3333C16.9333 11.4 17.7333 11.6667 18.3333 12C18.9999 12.4 19.5333 12.9333 19.9333 13.6667Z" fill="#1C1C1C"/>
<path d="M18.9333 15.1997C18.8667 14.7331 18.8 14.3997 18.6667 14.1331C18.3333 13.4664 17.8 13.0664 16.8667 12.9997C16.5333 12.9331 16.5333 12.9331 16.4667 12.8664C16.3333 12.7331 16.1333 12.6664 16 12.7997C15.8667 12.9331 15.8666 13.1331 15.9333 13.2664C16.1333 13.4664 16.3333 13.5331 16.7333 13.5997C17.4 13.6664 17.8 13.9331 18 14.3997C18.1333 14.6664 18.2 14.9331 18.2 15.2664C18.2667 15.5997 18.3333 15.8664 18.5333 15.9997C18.6 16.0664 18.6667 16.0664 18.7333 16.0664C18.8667 16.0664 18.9333 15.9997 19 15.9331C19.1333 15.7997 19.0667 15.5997 18.9333 15.4664C19 15.4664 18.9333 15.4664 18.9333 15.1997Z" fill="#1C1C1C"/>
<path d="M23.2 19.8663C23 19.6663 21.9333 18.7996 21.4666 18.4663C21.0666 18.1996 20.5333 17.8663 20.2 17.7329C19.8 17.5329 19.3333 17.4663 18.9333 17.5996C18.6 17.7329 18.4666 17.8663 18.0666 18.3329C17.8666 18.5329 17.7333 18.7329 17.7333 18.7996C17.7333 18.7996 17.6666 18.8663 17.6 18.8663C17.4 18.9329 17.0666 18.8663 16.4666 18.5996C15.9333 18.3329 15.5333 17.9996 15 17.5329C14.5333 17.1329 14.1333 16.5996 13.8666 16.1996C13.5333 15.6663 13.3333 14.9996 13.3333 14.7329C13.3333 14.5996 13.3333 14.3996 13.4 14.3329L13.4666 14.2663C13.5333 14.1996 13.6666 14.1329 13.8 13.9996C14.4 13.5329 14.6 13.3329 14.6666 12.9996C14.7333 12.6663 14.6666 12.2663 14.4 11.7329C14 10.9329 12.7333 9.19961 12.2 8.86628C12.1333 8.79961 11.9333 8.73294 11.8666 8.66628C11.6 8.59961 11.2666 8.59961 11.0666 8.59961C10.8 8.66628 10.4666 8.86628 9.79998 9.33294C9.46664 9.59961 8.93331 10.1329 8.73331 10.3996C8.39998 11.0663 8.46664 11.5996 8.79998 12.4663C9.26664 13.6663 9.86664 14.8663 10.6 16.0663C10.7333 16.2663 10.8 16.3996 10.9333 16.5996C11.0666 16.7996 11.2 16.9329 11.3333 17.1329C12.5333 18.7996 14 20.1996 15.6666 21.3329L15.7333 21.3996C15.8 21.4663 15.9333 21.5329 16 21.5996L16.2 21.7329C16.3333 21.7996 16.4 21.8663 16.5333 21.9329L18.4 22.9996C18.5333 23.0663 18.6666 23.1329 18.8 23.1996L19 23.2663C19.2 23.3329 19.4 23.4663 19.6 23.5329C20 23.6663 20.2 23.7329 20.4666 23.7329C20.5333 23.7329 20.5333 23.7329 20.6 23.7329C21.0666 23.7329 21.4666 23.5329 21.9333 23.1996C22.4666 22.7996 23.2 21.9329 23.4 21.3996C23.6 20.7996 23.5333 20.2663 23.2 19.8663Z" fill="#1C1C1C"/>
</svg>
