<svg width="32" height="32" viewBox="0 0 32 32" fill="none" xmlns="http://www.w3.org/2000/svg">
<path d="M28.8 0.640137H3.20001C1.79201 0.640137 0.640015 1.79214 0.640015 3.20014V28.8001C0.640015 30.2081 1.79201 31.3601 3.20001 31.3601H28.8C30.208 31.3601 31.36 30.2081 31.36 28.8001V3.20014C31.36 1.79214 30.208 0.640137 28.8 0.640137Z" fill="#C4C4C4"/>
<path d="M16.64 21.7602C17.28 21.7602 17.28 20.8642 17.28 20.4802C17.28 19.8402 17.92 19.2002 18.56 19.2002C19.2 19.2002 20.288 20.2882 21.12 21.1202C21.76 21.7602 21.76 21.7602 22.4 21.7602C23.04 21.7602 24.32 21.7602 24.32 21.7602C24.32 21.7602 25.6 21.6962 25.6 20.4802C25.6 20.0962 25.152 19.3922 23.68 17.9202C22.4 16.6402 21.76 17.2802 23.68 14.7202C24.832 13.1202 25.728 11.7122 25.6 11.3282C25.472 10.9442 22.208 10.3042 21.76 10.8802C20.48 12.8002 20.224 13.2482 19.84 14.0802C19.2 15.3602 19.136 16.0002 18.56 16.0002C17.984 16.0002 17.92 14.7842 17.92 14.0802C17.92 11.9682 18.24 10.4962 17.28 10.2402C17.28 10.2402 16 10.2402 15.36 10.2402C14.336 10.2402 13.44 10.8802 13.44 10.8802C13.44 10.8802 12.672 11.5202 12.8 11.5202C12.992 11.5202 14.08 11.2642 14.08 12.1602C14.08 12.8002 14.08 13.4402 14.08 13.4402C14.08 13.4402 14.08 16.0002 13.44 16.0002C12.8 16.0002 11.52 13.4402 10.24 11.5202C9.72804 10.7522 9.60004 10.8802 8.96004 10.8802C8.25604 10.8802 7.68004 10.8802 7.04004 10.8802C6.40004 10.8802 6.33604 11.2642 6.40004 11.5202C7.68004 14.7202 8.57604 16.7042 11.008 19.2642C13.248 21.5682 14.72 21.6962 16 21.7602C16.32 21.7602 16 21.7602 16.64 21.7602Z" fill="#1C1C1C"/>
</svg>
