<svg width="32" height="32" viewBox="0 0 32 32" fill="none" xmlns="http://www.w3.org/2000/svg">
<path d="M28.8 0.640137H3.20001C1.79201 0.640137 0.640015 1.79214 0.640015 3.20014V28.8001C0.640015 30.2081 1.79201 31.3601 3.20001 31.3601H28.8C30.208 31.3601 31.36 30.2081 31.36 28.8001V3.20014C31.36 1.79214 30.208 0.640137 28.8 0.640137Z" fill="#C4C4C4"/>
<path d="M25 15.8497C25 20.6923 21.0442 24.6179 16.1636 24.6179C14.6142 24.6179 13.1586 24.2219 11.8922 23.5269L7 25.0815L8.595 20.3771C7.7904 19.0559 7.327 17.5063 7.327 15.8497C7.327 11.0071 11.2832 7.08154 16.1638 7.08154C21.0446 7.08154 25 11.0071 25 15.8497ZM16.1636 8.47794C12.0668 8.47794 8.7344 11.7849 8.7344 15.8497C8.7344 17.4629 9.2602 18.9567 10.1496 20.1719L9.2214 22.9095L12.0764 22.0021C13.2494 22.7723 14.6546 23.2215 16.1638 23.2215C20.26 23.2215 23.593 19.9149 23.593 15.8499C23.5928 11.7851 20.2602 8.47794 16.1636 8.47794ZM20.6258 17.8691C20.5712 17.7797 20.427 17.7257 20.2106 17.6183C19.9938 17.5109 18.9286 16.9907 18.7306 16.9195C18.532 16.8477 18.3872 16.8117 18.243 17.0267C18.0988 17.2419 17.6836 17.7257 17.557 17.8691C17.4306 18.0129 17.3044 18.0309 17.0876 17.9233C16.8712 17.8159 16.1734 17.5887 15.346 16.8565C14.7022 16.2871 14.2674 15.5837 14.141 15.3685C14.0148 15.1535 14.1278 15.0373 14.236 14.9303C14.3336 14.8339 14.4528 14.6793 14.561 14.5539C14.6696 14.4283 14.7056 14.3389 14.7774 14.1953C14.85 14.0519 14.8138 13.9265 14.7594 13.8187C14.7054 13.7113 14.2718 12.6537 14.0914 12.2235C13.911 11.7933 13.7308 11.8649 13.6042 11.8649C13.478 11.8649 13.3334 11.8469 13.189 11.8469C13.0446 11.8469 12.8098 11.9007 12.6112 12.1157C12.4128 12.3309 11.8534 12.8509 11.8534 13.9083C11.8534 14.9659 12.6292 15.9877 12.7378 16.1311C12.846 16.2743 14.2358 18.5151 16.4378 19.3757C18.64 20.2357 18.64 19.9487 19.0372 19.9127C19.434 19.8769 20.3184 19.3929 20.4996 18.8913C20.6796 18.3889 20.6796 17.9587 20.6258 17.8691Z" fill="#1C1C1C"/>
</svg>
